HIERARCHY
ROOT pelvis
{
  OFFSET 0 100 0
  CHANNELS 6 Xposition Yposition Zposition Zrotation Xrotation Yrotation
  JOINT pelvis_right_femur
  {
    OFFSET -10.78128 -3.44521 -0.5502486
    CHANNELS 3 Zrotation Xrotation Yrotation
    JOINT right_femur_tibia
    {
      OFFSET -0.8047443 -44.0398 -0.1307829
      CHANNELS 3 Zrotation Xrotation Yrotation
      JOINT right_tibia_foot
      {
        OFFSET 3.006224 -47.83518 -5
        CHANNELS 3 Zrotation Xrotation Yrotation
        End Site
        {
          OFFSET 0 -5 15
        }
      }
    }
  }
  JOINT pelvis_left_femur
  {
    OFFSET 10.78128 -3.44521 -0.5502486
    CHANNELS 3 Zrotation Xrotation Yrotation
    JOINT left_femur_tibia
    {
      OFFSET 0.8047443 -44.0398 -0.1307829
      CHANNELS 3 Zrotation Xrotation Yrotation
      JOINT left_tibia_foot
      {
        OFFSET -4.370144 -48.10324 -4.275266
        CHANNELS 3 Zrotation Xrotation Yrotation
        End Site
        {
          OFFSET 0 -5 15
        }
      }
    }
  }
  JOINT pelvis_spine1
  {
    OFFSET 0 6.468898 -3.129235
    CHANNELS 3 Zrotation Xrotation Yrotation
    JOINT spine1
    {
      OFFSET 0 23.15396 4.99043
      CHANNELS 3 Zrotation Xrotation Yrotation
      JOINT spine2
      {
        OFFSET 0 20.79997 -5.064912
        CHANNELS 3 Zrotation Xrotation Yrotation
        JOINT neck
        {
          OFFSET 0 14.38658 9.616178
          CHANNELS 3 Zrotation Xrotation Yrotation
          End Site
          {
            OFFSET 0 20 0
          }
        }
      }
      JOINT right_manubrium
      {
        OFFSET -5.722621 16.35077 3.967754
        CHANNELS 3 Zrotation Xrotation Yrotation
        JOINT right_clavicle
        {
          OFFSET -13.16364 1.694482 -4.693211
          CHANNELS 3 Zrotation Xrotation Yrotation
          JOINT right_humerus
          {
            OFFSET -28.5034 -0.3100689 -2.792744
            CHANNELS 3 Zrotation Xrotation Yrotation
            JOINT right_radius
            {
              OFFSET -25.15693 0.02248979 -1.271978
              CHANNELS 3 Zrotation Xrotation Yrotation
              End Site
              {
                OFFSET -15 0 0
              }
            }
          }
        }
      }
      JOINT left_manubrium
      {
        OFFSET 5.722621 16.35077 3.967754
        CHANNELS 3 Zrotation Xrotation Yrotation
        JOINT left_clavicle
        {
          OFFSET 13.16364 1.694482 -4.693211
          CHANNELS 3 Zrotation Xrotation Yrotation
          JOINT left_humerus
          {
            OFFSET 29.39168 -1.063119 -2.237045
            CHANNELS 3 Zrotation Xrotation Yrotation
            JOINT left_radius
            {
              OFFSET 24.59957 -0.9528479 0.9047498
              CHANNELS 3 Zrotation Xrotation Yrotation
              End Site
              {
                OFFSET 15 -0 -0
              }
            }
          }
        }
      }
    }
  }
}
MOTION
Frames: 7
Frame Time: 0.0416666666667
0 103.5113 0 2.437802 0.3695382 0.1712776 3.317982 -15.48171 11.99446 -0 35.22196 -0 -2.882129 -17.45502 -3.172225 -8.918439 9.331796 -21.66294 -0 4.736976 -0 21.7046 -9.273526 30.04678 -2.245589 -2.371263 5.014977 2.832083 10.07077 -7.18423 1.472014 21.29548 6.693477 2.481258 -24.48111 9.929016 5.411962 -18.86408 11.61524 85.91892 37.62443 -17.74082 -0 0 13.89376 -7.674506 9.175636 5.293413 5.852328 -20.28216 -1.203046 -90.80326 20.64242 19.39991 0 0 -17.9456 13.90351 12.37166 -2.249183
0.4681775 103.3643 1.828529 1.906636 1.341955 0.2915412 4.485986 -18.33109 12.81777 -0 35.18937 -0 -3.011697 -16.74382 -3.276646 -8.736868 9.265354 -21.48832 -0 5.035932 -0 22.41839 -9.652595 30.68886 -2.236193 -2.236795 4.745121 3.034474 10.11539 -7.373514 1.41705 21.16415 7.004779 2.574083 -25.0301 10.25641 5.361629 -18.78796 11.68756 86.77381 38.12038 -18.79115 -0 0 12.96217 -7.110357 9.098868 5.164303 5.802952 -20.37925 -1.492131 -90.14432 20.7288 18.76139 0 0 -19.71252 14.37974 11.50393 -2.58437
0.8156789 103.0871 3.762785 1.313056 0.9656135 0.428847 4.720243 -20.67025 10.16915 -0 33.58957 -0 -4.713412 -15.09019 -2.804759 -8.064045 10.65006 -21.71453 -0 5.267169 -0 17.93961 -13.27905 29.19202 -2.234939 -2.267482 4.646597 3.142928 10.11444 -7.496839 1.375593 21.06086 7.225954 2.631164 -25.48627 10.53318 5.295799 -18.893 11.6953 87.31383 38.42433 -19.46862 -0 0 12.64005 -6.704535 9.075231 4.96607 5.890941 -20.49879 -1.545219 -89.97424 20.83883 18.61556 0 0 -20.6443 14.8319 11.12923 -2.940104
1.108868 102.7702 5.877778 0.7686368 1.214149 0.5264567 5.401753 -23.39035 9.261781 -0 32.03503 -0 -5.530609 -13.5609 -2.55553 -7.606006 11.26981 -21.40526 -0 5.740958 -0 16.24651 -15.09508 28.40828 -2.230642 -2.230655 4.500797 3.274641 10.13353 -7.632021 1.320929 20.96056 7.423192 2.691288 -25.9122 10.73065 5.247042 -18.91949 11.73376 87.83783 38.60174 -20.16315 -0 0 12.16311 -6.384438 9.016931 4.901828 5.893123 -20.58806 -1.697309 -89.66577 20.99787 18.3463 0 0 -21.70861 15.06174 10.63017 -3.04682
1.36254 102.3567 8.261113 0.2649569 1.428847 0.625421 5.987112 -26.20119 8.126477 -0 29.70042 -0 -6.3495 -11.70881 -2.165811 -7.15577 11.93494 -20.82555 -0 6.41062 -0 14.63043 -16.79796 27.27455 -2.228447 -2.212687 4.362122 3.417634 10.15033 -7.772999 1.25843 20.86775 7.588067 2.738917 -26.34425 10.88478 5.208183 -18.95143 11.77433 88.28835 38.62552 -20.8222 -0 0 11.74112 -6.102647 8.935592 4.869417 5.882239 -20.66889 -1.84232 -89.44715 21.22036 18.17181 0 0 -22.59547 15.16476 10.20622 -3.021119
1.594396 101.8595 10.97984 -0.1693776 1.786358 0.7521061 6.55744 -28.90612 7.22405 -0 27.02292 -0 -6.970891 -9.828765 -1.740647 -6.800761 12.49828 -20.05069 -0 7.325184 -0 13.59603 -17.99093 26.12585 -2.228119 -2.162889 4.211501 3.558485 10.17214 -7.901938 1.19725 20.79552 7.707007 2.775898 -26.68785 10.96233 5.191362 -18.925 11.82695 88.64205 38.54669 -21.38006 -0 0 11.29466 -5.910646 8.841231 4.922344 5.819279 -20.71576 -2.021508 -89.19533 21.44227 17.95786 0 0 -23.37717 15.10754 9.800736 -2.845816
1.813308 101.2911 14.11035 -0.5434298 2.174219 0.9370657 7.021857 -31.31551 6.285704 -0 24.0361 -0 -7.525161 -7.873717 -1.251968 -6.498176 13.07343 -19.09935 -0 8.66048 -0 12.64612 -18.81979 24.73254 -2.230166 -2.091706 4.051017 3.699648 10.19655 -8.022815 1.137487 20.74336 7.783034 2.801078 -26.9555 10.97268 5.195912 -18.84704 11.88762 88.9085 38.37077 -21.85234 -0 0 10.83433 -5.790087 8.734643 5.038219 5.71491 -20.73572 -2.223918 -88.93381 21.66446 17.7236 0 0 -24.02904 14.91295 9.433041 -2.545867
